<?xml version="1.0" encoding="UTF-8"?>
<!DOCTYPE svg PUBLIC "-//W3C//DTD SVG 1.1//EN" "http://www.w3.org/Graphics/SVG/1.1/DTD/svg11.dtd">
<!-- Creator: CorelDRAW -->
<svg xmlns="http://www.w3.org/2000/svg" xml:space="preserve" width="86.7069mm" height="15.2099mm" version="1.1" style="shape-rendering:geometricPrecision; text-rendering:geometricPrecision; image-rendering:optimizeQuality; fill-rule:evenodd; clip-rule:evenodd"
viewBox="0 0 8698.41 1525.85"
 xmlns:xlink="http://www.w3.org/1999/xlink"
 xmlns:xodm="http://www.corel.com/coreldraw/odm/2003">
 <defs>
  <style type="text/css">
   <![CDATA[
    .fil0 {fill:#1F3D57}
    .fil1 {fill:#3897B7}
    .fil2 {fill:#1F3D57;fill-rule:nonzero}
   ]]>
  </style>
 </defs>
 <g id="Layer_x0020_1">
  <metadata id="CorelCorpID_0Corel-Layer"/>
  <polygon class="fil0" points="2859.99,45.42 1765.09,45.42 1546.13,45.42 1546.13,264.4 1546.13,1359.29 1765.09,1359.29 1765.09,264.4 2859.99,264.4 "/>
  <polygon class="fil1" points="-0,45.42 1094.89,45.42 1313.88,45.42 1313.88,264.4 1313.88,1359.29 1094.89,1359.29 1094.89,264.4 -0,264.4 "/>
  <path class="fil2" d="M3750.25 174.95c0,-30.85 14.8,-27.16 39.49,-27.16 176.41,0 186.28,169.04 209.72,169.04 14.82,0 41.96,-13.58 41.96,-23.44 0,-9.86 18.5,-181.37 18.5,-207.26 0,-22.21 -14.81,-29.62 -39.48,-28.38 -127.08,2.46 -255.39,3.68 -382.24,3.68 -126.81,0 -253.9,-1.22 -382.21,-3.68 -25.91,-1.24 -38.23,6.17 -43.17,38.24 -2.47,16.03 -25.92,187.54 -25.92,197.4 0,11.11 27.15,23.44 41.96,23.44 23.41,0 82.64,-169.04 224.54,-169.04 33.31,0 48.11,8.64 48.11,27.16l0 603.29c0,53.06 -66.61,49.37 -66.61,67.87 0,14.81 12.32,41.95 22.2,41.95 49.34,-2.47 108.58,-3.71 168.78,-3.71 60.2,0 120.66,1.24 168.78,3.71 9.86,0 23.42,-27.15 23.42,-41.95 0,-18.5 -67.84,-14.81 -67.84,-67.87l0 -603.29zm331.88 167.78c-9.88,1.24 -22.21,25.91 -22.21,40.72 0,19.72 54.29,16.04 54.29,67.85l0 328.19c0,53.05 -54.29,49.35 -54.29,69.09 0,14.81 12.33,40.71 22.21,40.71 49.36,-2.47 99.94,-3.69 150.52,-3.69 50.58,0 102.41,1.22 150.52,3.69 9.88,0 23.43,-25.9 23.43,-40.71 0,-19.74 -55.52,-16.04 -55.52,-69.09l0 -166.56c0,-82.65 32.08,-139.41 80.2,-139.41 66.62,-0.49 62.91,55.03 87.6,55.03 62.92,0 117.2,-57.98 117.2,-125.6 0,-73.78 -53.06,-130.52 -124.61,-130.52 -59.22,0 -120.91,69.09 -160.39,151.5l0 -115.73c0,-10.36 -25.91,-23.94 -40.72,-23.94 -19.72,0 -102.16,45.64 -227.5,57.98l-0.73 0.49zm941.6 521.38c0,9.88 25.89,23.45 40.71,22.21 98.45,-3.71 130.3,-3.71 227.51,1.24 9.87,0 23.43,-27.16 23.43,-41.95 0.73,-19.74 -54.78,-14.81 -54.78,-67.62l0 -240.58c0,-171.25 -111.04,-265 -311.63,-265 -168.3,0 -280.55,70.31 -280.55,171.25 0,62.91 48.1,101.15 130.77,101.15 85.13,0 120.91,-39.49 120.91,-83.9 -0.97,-15.04 -44.41,-12.57 -44.41,-65.38 0,-33.32 24.92,-49.11 64.66,-49.11 61.18,0 83.4,42.93 83.4,174.45l0 18.52c-128.07,23.68 -393.57,6.66 -393.57,190.5 0,99.69 96.24,170 238.13,170 44.89,0 107.08,-41.95 155.45,-93.77l0 57.98zm-93.27 -91.05c-32.33,0 -59.71,-19.74 -59.71,-57.73 0,-66.38 82.16,-76.24 152.98,-101.91l0 14.82c0,83.39 -47.13,144.83 -93.27,144.83zm448.35 -430.82c-9.88,1.24 -22.2,25.91 -22.2,40.71 0,19.74 54.27,16.05 54.27,67.87l0 328.18c0,53.06 -54.27,49.35 -54.27,69.09 0,14.81 12.32,40.71 22.2,40.71 49.34,-2.47 99.93,-3.69 150.51,-3.69 50.57,0 102.42,1.22 150.52,3.69 9.12,0 22.69,-25.9 22.69,-40.71 0.26,-19.74 -54.77,-16.03 -54.77,-69.09l0 -202.33c0,-83.9 46.65,-171.51 92.04,-171.51 39.24,0 57.49,29.62 57.49,92.54l0 281.3c0,53.06 -53.79,49.35 -53.79,69.09 0,14.81 12.08,40.71 21.96,40.71 49.1,-2.47 99.69,-3.69 150.27,-3.69 50.58,0 102.42,1.22 151.01,3.69 10.12,0 23.68,-25.9 23.68,-40.71 -0.48,-19.74 -56.25,-16.03 -56.25,-69.09l0 -202.33c0,-83.9 46.89,-171.51 92.8,-171.51 39.72,0 58.22,29.62 58.22,92.54l0 281.3c0,53.06 -54.54,49.35 -54.54,69.09 0,14.81 12.6,40.71 22.45,40.71 49.38,-2.47 99.95,-3.69 150.53,-3.69 50.58,0 102.4,1.22 150.52,3.69 9.14,0 22.69,-25.9 22.69,-40.71 0.76,-19.74 -54.75,-16.03 -54.75,-69.09l0 -302.26c0,-123.38 -79.95,-204.31 -195.69,-204.31 -52.8,0 -142.12,51.32 -207.02,110.53 -28.38,-71.56 -94.76,-110.53 -180.86,-110.53 -47.87,0 -128.07,46.38 -190.75,101.89l0 -66.62c0,-9.86 -25.9,-23.43 -40.71,-23.43 -19.73,0 -102.17,45.64 -227.5,57.98l-0.73 0zm1162.19 0c-9.88,1.24 -22.2,25.91 -22.2,40.71 0,19.74 54.28,16.05 54.28,67.87l0 328.18c0,53.06 -54.28,49.35 -54.28,69.09 0,14.81 12.32,40.71 22.2,40.71 49.36,-2.47 99.94,-3.69 150.52,-3.69 50.58,0 102.41,1.22 150.52,3.69 9.12,0 22.69,-25.9 22.69,-40.71 0.26,-19.74 -54.77,-16.03 -54.77,-69.09l0 -202.33c0,-83.9 46.64,-171.51 92.03,-171.51 39.25,0 57.5,29.62 57.5,92.54l0 281.3c0,53.06 -53.8,49.35 -53.8,69.09 0,14.81 12.1,40.71 21.97,40.71 49.11,-2.47 99.7,-3.69 150.26,-3.69 50.59,0 102.42,1.22 151.01,3.69 10.12,0 23.7,-25.9 23.7,-40.71 -0.48,-19.74 -56.26,-16.03 -56.26,-69.09l0 -202.33c0,-83.9 46.88,-171.51 92.8,-171.51 39.73,0 58.23,29.62 58.23,92.54l0 281.3c0,53.06 -54.55,49.35 -54.55,69.09 0,14.81 12.59,40.71 22.47,40.71 49.35,-2.47 99.93,-3.69 150.52,-3.69 50.57,0 102.39,1.22 150.52,3.69 9.12,0 22.69,-25.9 22.69,-40.71 0.74,-19.74 -54.77,-16.03 -54.77,-69.09l0 -302.26c0,-123.38 -79.94,-204.31 -195.67,-204.31 -52.81,0 -142.13,51.32 -207.03,110.53 -28.37,-71.56 -94.76,-110.53 -180.87,-110.53 -47.87,0 -128.07,46.38 -190.74,101.89l0 -66.62c0,-9.86 -25.91,-23.43 -40.72,-23.43 -19.72,0 -102.16,45.64 -227.49,57.98l-0.74 0zm1567.12 418.74c-56.76,0 -103.65,-21.96 -134.48,-63.91 118.44,-12.35 312.14,-79.94 312.14,-210.48 0,-119.43 -122.14,-214.17 -281.32,-214.17 -185.05,0 -320.76,132.98 -320.76,313.86 0,183.34 139.41,313.86 333.12,313.86 230.72,0 308.44,-163.58 308.44,-204.31 0,-14.79 -12.36,-22.21 -23.46,-22.21 -6.17,0 -12.32,2.47 -17.28,7.42 -43.17,49.34 -111.03,79.94 -176.41,79.94zm-162.86 -115.48c-13.55,-37.02 -20.97,-83.9 -20.97,-140.42 0,-102.16 25.91,-158.66 77.73,-158.66 43.19,0 66.62,33.07 66.62,94.76 0,94.74 -55.53,151.25 -123.38,204.31zm419.98 -587.52c-9.88,1.22 -22.2,25.91 -22.2,40.71 0,19.74 54.26,16.03 54.26,67.87l0 611.94c0,53.04 -54.26,49.35 -54.26,69.09 0,14.8 12.32,40.71 22.2,40.71 49.11,-2.47 99.69,-3.71 149.76,-3.71 50.6,0 102.42,1.24 150.53,3.71 9.88,0 23.45,-25.91 23.45,-40.71 0,-19.74 -55.52,-16.05 -55.52,-69.09l0 -755.07c0,-9.86 -25.91,-23.43 -40.74,-23.43 -19.72,0 -102.16,45.64 -227.48,57.98z"/>
  <polygon class="fil1" points="3177.48,1007.31 8698.41,1007.31 8698.41,1063.75 3177.48,1063.75 "/>
  <path class="fil2" d="M4498.62 1233.37l75.62 0 0 109.17 88.29 0 0 -109.17 75.61 0 0 285.89 -75.61 0 0 -119.47 -88.29 0 0 119.47 -75.62 0 0 -285.89zm535.89 48.6c-19.57,0 -35.3,8.52 -47.21,25.47 -11.93,16.96 -17.86,39.62 -17.86,68.05 0,28.56 5.93,51.35 17.78,68.38 11.87,17.03 27.59,25.54 47.29,25.54 19.6,0 35.2,-8.51 46.92,-25.47 11.71,-16.95 17.59,-39.76 17.59,-68.45 0,-28.29 -5.88,-50.95 -17.66,-67.98 -11.78,-17.02 -27.38,-25.54 -46.85,-25.54zm0 -55.62c44.06,0 78.46,13.25 103.33,39.76 24.78,26.43 37.19,63.17 37.19,110.06 0,47.1 -12.41,83.84 -37.19,110.13 -24.87,26.36 -59.27,39.55 -103.33,39.55 -44.28,0 -78.9,-13.18 -103.75,-39.55 -24.87,-26.29 -37.34,-63.03 -37.34,-110.13 0,-46.89 12.47,-83.63 37.41,-110.06 25,-26.5 59.53,-39.76 103.68,-39.76zm295.72 7.01l75.62 0 0 229.45 114.02 0 0 56.44 -189.64 0 0 -285.89zm411.81 55.2l0 173.43 32.7 0c26.63,0 47.14,-7.55 61.65,-22.72 14.51,-15.18 21.72,-36.67 21.72,-64.61 0,-27.61 -7.54,-48.89 -22.61,-63.79 -15.12,-14.9 -36.72,-22.31 -64.7,-22.31l-28.76 0zm-76.01 -55.2l99.39 0c25.88,0 47.61,1.65 65.13,4.94 17.5,3.3 31.74,8.31 42.78,15.18 20.64,13.25 36.18,30.08 46.73,50.39 10.49,20.32 15.73,43.88 15.73,70.73 0,29.52 -5.53,54.58 -16.48,75.25 -10.96,20.67 -27.65,37.62 -50.14,50.87 -11.17,6.45 -25.48,11.2 -42.91,14.15 -17.46,2.95 -40.81,4.39 -70.24,4.39l-89.98 0 0 -285.89zm422.19 0l75.6 0 0 285.89 -75.6 0 0 -285.89zm240.98 0l94.34 0 82.22 171.44c2.79,5.77 6,13.73 9.75,24.03 3.73,10.23 7.83,22.8 12.39,37.7 -2.45,-14.07 -4.23,-26.99 -5.33,-38.79 -1.15,-11.81 -1.71,-22.59 -1.71,-32.4l0 -161.97 68.26 0 0 285.89 -93.99 0 -85.29 -177.69c-4.01,-8.18 -7.7,-17.03 -11.04,-26.64 -3.27,-9.54 -6.33,-19.97 -9.12,-31.24 2.66,17.03 4.62,32.68 5.85,46.97 1.3,14.28 1.92,26.85 1.92,37.69l0 150.91 -68.26 0 0 -285.89zm675.5 6.45l-6.61 59.46c-11.52,-6.59 -23.64,-11.54 -36.23,-14.83 -12.67,-3.3 -25.63,-4.95 -38.89,-4.95 -31,0 -55.46,8.65 -73.31,25.95 -17.91,17.3 -26.84,40.92 -26.84,70.86 0,28.83 7.97,51.76 23.91,68.79 16.01,17.03 37.47,25.54 64.53,25.54 5.65,0 10.94,-0.27 15.73,-0.82 4.78,-0.54 9.33,-1.3 13.54,-2.4l0 -59.8 -43.73 0 0 -53.97 114.03 0 0 159.36c-14.92,4.26 -30.39,7.48 -46.53,9.61 -16.07,2.14 -32.54,3.23 -49.45,3.23 -55.25,0 -97.2,-12.56 -125.89,-37.62 -28.68,-25.07 -42.98,-61.66 -42.98,-109.79 0,-48.2 14.52,-85.62 43.59,-112.4 29.03,-26.71 69.82,-40.1 122.35,-40.1 15.73,0 31.32,1.17 46.79,3.5 15.47,2.41 30.8,5.84 45.99,10.37zm358.68 -3.16l-5.58 58.98c-11.59,-5.02 -22.68,-8.72 -33.32,-11.19 -10.62,-2.48 -20.98,-3.71 -30.92,-3.71 -15.32,0 -27.26,2.47 -35.82,7.34 -8.6,4.88 -12.89,11.61 -12.89,20.18 0,6.05 2.18,11.34 6.54,15.8 4.42,4.52 10.97,8.24 19.76,11.19 2.92,0.96 7.09,2.27 12.52,3.98 32.5,10.64 54.04,19.91 64.66,28.01 10.01,7.76 17.31,16.62 21.94,26.57 4.69,10.02 7,21.7 7,35.08 0,31.52 -10.35,55.55 -31.13,72.09 -20.7,16.55 -50.81,24.86 -90.19,24.86 -14.17,0 -28.47,-1.03 -42.78,-3.02 -14.3,-2 -28.47,-5.02 -42.57,-9.07l6.4 -63.71c13.27,6.05 26.23,10.64 38.75,13.8 12.61,3.16 24.46,4.74 35.62,4.74 14.86,0 26.63,-2.81 35.29,-8.45 8.65,-5.63 12.94,-13.25 12.94,-22.93 0,-11.94 -13.83,-22.72 -41.41,-32.4 -6.67,-2.27 -11.79,-4.05 -15.33,-5.43 -27.05,-9.74 -46.33,-21.15 -57.91,-34.05 -11.56,-12.98 -17.37,-29.52 -17.37,-49.64 0,-28.7 10.16,-50.74 30.52,-66.19 20.37,-15.45 49.61,-23.14 87.61,-23.14 13.96,0 27.46,0.83 40.33,2.55 12.94,1.65 25.33,4.25 37.32,7.75z"/>
 </g>
</svg>
